<svg id="svg-lightning" xmlns:rdf="http://www.w3.org/1999/02/22-rdf-syntax-ns#" xmlns="http://www.w3.org/2000/svg" xml:space="preserve" height="959.76" viewBox="0 0 548.52602 959.75927" width="548.53" version="1.1" y="0px" x="0px" xmlns:cc="http://creativecommons.org/ns#" xmlns:dc="http://purl.org/dc/elements/1.1/">
	<path id="path3" d="m34.281 953.7 307.2-308.6c12.601-12.6 3.601-34.1-14.2-34.1h-24.5c-16.699 0-26.1-19.301-15.699-32.4l162.9-205.4c10.4-13.1 1.101-32.4-15.7-32.4h-81.899c-16.5 0-25.9-18.8-16-32l208.1-276.8c9.9-13.2 0.5-32-16-32h-329.1c-7.601 0-14.601 4.3-17.9 11.1l-160.9 325.5c-6.6 13.3 3.1 28.9 17.9 28.9h74.2c14.8 0 24.5 15.6 17.9 28.9l-110 222.6c-6.6 13.301 3.1 28.9 17.9 28.9h69.9c14.8 0 24.399 15.4 18 28.699l-124.2 256.3c-9.9 20.299 16.2 38.799 32.1 22.799z"/>
</svg>
