<svg id="svg-power" xmlns="http://www.w3.org/2000/svg" viewBox="0 0 1910 2143">
	<path id="power-circle" d="m1409.2 705.07c146.61 130 230.8 286.86 230.8 482.72 0 377.88-307.26 685.09-684.97 685.09-377.81 0-684.97-307.21-684.97-685.09 0-182.92 71.253-355.02 200.63-484.42l-191.03-190.94c-180.39 180.52-279.7 420.38-279.7 675.48 0 526.6 428.32 955.1 954.95 955.1 526.55 0 955.05-428.4 955.05-955.1 0-273.15-117.3-503.58-321.6-684.9l-179.2 202.07z"/>
	<path id="power-line" d="m1092.2 1177.3c0 78.873-71.654 142.71-160.24 142.71-88.29 0-160.04-63.84-160.04-142.71v-1034.6c0.14-78.803 71.89-142.64 160.18-142.64 88.39 0 160.04 63.84 160.04 142.71v1034.6h0.1002z"/>
</svg>
