<svg id="xspaarlamp" xmlns:rdf="http://www.w3.org/1999/02/22-rdf-syntax-ns#" xmlns="http://www.w3.org/2000/svg" viewBox="0 0 256.25 513.75" version="1.1" xmlns:cc="http://creativecommons.org/ns#" xmlns:dc="http://purl.org/dc/elements/1.1/">
	<path id="light-tube-1" d="m32.011 107.25c3.3452 0 6.7539-0.56125 10.127-1.69l128-42.656c16.754-5.59 25.816-23.715 20.22-40.469-5.5912-16.747-23.622-25.938-40.469-20.249l-128 42.687c-16.751 5.5625-25.814 23.688-20.247 40.475 4.4978 13.4 16.969 21.9 30.371 21.9l-0.002377 0.001251z"/>
	<path id="light-tube-2" d="m1.6401 181.88c-5.5664-16.783 3.4961-34.908 20.25-40.499l192-63.999c16.875-5.6888 34.908 3.4962 40.469 20.249 5.5963 16.749-3.4662 34.874-20.215 40.469l-192 64c-3.3735 1.1225-6.7821 1.655-10.127 1.655-13.402 0-25.874-8.5013-30.371-21.875h-0.005125z"/>
	<path id="light-tube-3" d="m64.293 337.07h63.095c0.62501-3.75 0.815-7.6212 0-11.562-3.5935-18.09-11.372-34.56-22.314-48.374l129.06-43.033c16.749-5.59 25.811-23.715 20.215-40.469-5.5612-16.747-23.594-25.874-40.469-20.249l-192 64c-13.748 4.5875-22.718 17.875-21.814 32.375 0.9077 14.462 11.44 26.525 25.688 29.375 19.375 3.8425 34.316 18.715 38.531 37.934l0.004997 0.002502z"/>
	<path id="light-base" d="m128.64 352.5h-64.624c-17.69 0-32.002 14.316-32.002 32.003v31.996c0 17.693 14.316 32.004 32.002 32.004v32.001c0 17.686 14.311 31.997 32.001 31.997h64c17.685 0 31.996-14.311 31.996-31.997v-32.001c17.691 0 32.003-14.311 32.003-32.003v-31.996c0-17.281-13.721-31.129-30.845-31.754"/>
	<path id="light-tube-4" d="m193.18 354.27c2.8125-14.809 15.22-27.202 30.845-27.202 17.685 0 32.001-14.311 32.001-31.996 0-17.686-14.316-32.003-32.001-32.003-50.874 0-92.251 39.908-95.376 90"/>
</svg>
