<svg id="xtimer" xmlns:rdf="http://www.w3.org/1999/02/22-rdf-syntax-ns#" xmlns="http://www.w3.org/2000/svg" xml:space="preserve" viewBox="0 0 317.149 355.852" version="1.1" y="0px" x="0px">
	<path id="path3" d="m164.82 178.24v-73.614h-16.662v73.614c-8.415 3.324-14.378 11.519-14.378 21.118 0 9.601 5.963 17.796 14.378 21.12v18.029h16.662v-18.029c8.436-3.324 14.398-11.519 14.398-21.12 0-9.599-5.963-17.793-14.398-21.118z"/>
	<path id="path5" d="m281.79 93.878 9.227 9.23 26.13-26.145-38.443-38.446-26.143 26.141 9.223 9.228-5.227 5.242c-23.76-19.792-53.43-32.69-85.93-35.62v-6.536h13.055v-36.974h-54.378v36.974h13.041v6.536c-79.677 7.172-142.35 74.32-142.35 155.85 0 86.291 70.21 156.5 156.49 156.5 86.304 0 156.5-70.204 156.5-156.5 0-38.108-13.701-73.077-36.441-100.25l5.241-5.226zm-125.3 218.48c-62.307 0-112.98-50.693-112.98-113 0-62.303 50.679-112.99 112.98-112.99 62.318 0 112.99 50.69 112.99 112.99 0 62.306-50.676 113-112.99 113z"/>
</svg>
